<?xml version="1.0" encoding="UTF-8" standalone="no"?>
<!DOCTYPE svg PUBLIC "-//W3C//DTD SVG 1.1//EN" "http://www.w3.org/Graphics/SVG/1.1/DTD/svg11.dtd">
<svg width="100%" height="100%" viewBox="0 0 1394 1228" version="1.1" xmlns="http://www.w3.org/2000/svg" xmlns:xlink="http://www.w3.org/1999/xlink" xml:space="preserve" xmlns:serif="http://www.serif.com/" style="fill-rule:evenodd;clip-rule:evenodd;stroke-linejoin:round;stroke-miterlimit:2;">
    <g transform="matrix(4.16667,0,0,4.16667,-850.144,-240.692)">
        <path d="M475.23,172.152C475.23,172.152 493.827,148.373 491.534,129.476C490.276,119.113 479.951,96.1 426.423,106.982C383.688,115.67 334.542,127.716 334.542,127.716L291.103,199.091C291.103,199.091 364.959,174.619 441.584,170.653C460.037,169.698 475.23,172.152 475.23,172.152Z" style="fill:rgb(31,67,118);fill-rule:nonzero;"/>
    </g>
    <g transform="matrix(4.16667,0,0,4.16667,-850.144,-240.692)">
        <path d="M485.055,71.955L465.021,57.766C465.021,57.766 367.793,78.04 269.323,140.524C201.83,183.352 204.043,212.839 204.043,212.839L246.768,289.34C246.768,289.34 228.617,259.476 290.707,201.063C389.13,108.469 485.055,71.955 485.055,71.955Z" style="fill:rgb(26,103,177);fill-rule:nonzero;"/>
    </g>
    <g transform="matrix(4.16667,0,0,4.16667,-850.144,-240.692)">
        <path d="M267.391,237.954C267.391,237.954 248.793,261.733 251.086,280.63C252.344,290.993 262.669,314.006 316.197,303.123C358.933,294.436 408.08,282.39 408.08,282.39L451.519,211.015C451.519,211.015 377.662,235.487 301.037,239.453C282.583,240.408 267.391,237.954 267.391,237.954Z" style="fill:rgb(31,67,118);fill-rule:nonzero;"/>
    </g>
    <g transform="matrix(4.16667,0,0,4.16667,-850.144,-240.692)">
        <path d="M257.566,338.151L277.6,352.34C277.6,352.34 374.828,332.066 473.298,269.582C540.791,226.754 538.578,197.267 538.578,197.267L495.853,120.766C495.853,120.766 514.004,150.63 451.914,209.043C353.491,301.637 257.566,338.151 257.566,338.151Z" style="fill:rgb(26,103,177);fill-rule:nonzero;"/>
    </g>
</svg>
